HIERARCHY
ROOT RootJoint
{
    OFFSET   0.000000   0.000000   0.000000
    CHANNELS 6 Xposition Yposition Zposition Xrotation Yrotation Zrotation
    JOINT pelvis_lowerback
    {
        OFFSET   0.000000   0.093605   0.000000
        CHANNELS 3 Xrotation Yrotation Zrotation
        JOINT lowerback_torso
        {
            OFFSET   0.000000   0.100000   0.000000
            CHANNELS 3 Xrotation Yrotation Zrotation
            JOINT torso_head
            {
                OFFSET   0.000000   0.282350   0.000000
                CHANNELS 3 Xrotation Yrotation Zrotation
                End Site
                {
                    OFFSET   0.000000   0.192650   0.000000
                }
            }
            JOINT rTorso_Clavicle
            {
                OFFSET  -0.001000   0.157500   0.000000
                CHANNELS 3 Xrotation Yrotation Zrotation
                JOINT rShoulder
                {
                    OFFSET  -0.117647   0.000000   0.000000
                    CHANNELS 3 Xrotation Yrotation Zrotation
                    JOINT rElbow
                    {
                        OFFSET  -0.245000   0.000000   0.000000
                        CHANNELS 3 Xrotation Yrotation Zrotation
                        JOINT rWrist
                        {
                            OFFSET  -0.240000   0.000000   0.000000
                            CHANNELS 3 Xrotation Yrotation Zrotation
                            End Site
                            {
                                OFFSET  -0.116353  -0.002500   0.000000
                            }
                        }
                    }
                }
            }
            JOINT lTorso_Clavicle
            {
                OFFSET   0.001000   0.157500   0.000000
                CHANNELS 3 Xrotation Yrotation Zrotation
                JOINT lShoulder
                {
                    OFFSET   0.117647   0.000000   0.000000
                    CHANNELS 3 Xrotation Yrotation Zrotation
                    JOINT lElbow
                    {
                        OFFSET   0.245000   0.000000   0.000000
                        CHANNELS 3 Xrotation Yrotation Zrotation
                        JOINT lWrist
                        {
                            OFFSET   0.240000   0.000000   0.000000
                            CHANNELS 3 Xrotation Yrotation Zrotation
                            End Site
                            {
                                OFFSET   0.116353  -0.002500   0.000000
                            }
                        }
                    }
                }
            }
        }
    }
    JOINT rHip
    {
        OFFSET  -0.100000  -0.051395   0.000000
        CHANNELS 3 Xrotation Yrotation Zrotation
        JOINT rKnee
        {
            OFFSET   0.000000  -0.410000   0.000000
            CHANNELS 3 Xrotation Yrotation Zrotation
            JOINT rAnkle
            {
                OFFSET   0.000000  -0.390000   0.000000
                CHANNELS 3 Xrotation Yrotation Zrotation
                JOINT rToeJoint
                {
                    OFFSET   0.000000  -0.050000   0.130000
                    CHANNELS 3 Xrotation Yrotation Zrotation
                    End Site
                    {
                        OFFSET  -0.010000   0.002000   0.060000
                    }
                }
            }
        }
    }
    JOINT lHip
    {
        OFFSET   0.100000  -0.051395   0.000000
        CHANNELS 3 Xrotation Yrotation Zrotation
        JOINT lKnee
        {
            OFFSET   0.000000  -0.410000   0.000000
            CHANNELS 3 Xrotation Yrotation Zrotation
            JOINT lAnkle
            {
                OFFSET   0.000000  -0.390000   0.000000
                CHANNELS 3 Xrotation Yrotation Zrotation
                JOINT lToeJoint
                {
                    OFFSET   0.000000  -0.050000   0.130000
                    CHANNELS 3 Xrotation Yrotation Zrotation
                    End Site
                    {
                        OFFSET   0.010000   0.002000   0.060000
                    }
                }
            }
        }
    }
}
MOTION
Frames: 12
Frame Time:   0.008333
 -2.376719   0.925631   3.975860   0.000000   0.000000   0.000000   0.000000   0.000000   0.000000   0.000000   0.000000   0.000000   0.000000   0.000000   0.000000   0.000000   0.000000   0.000000   0.000000   0.000000   0.000000   0.000000   0.000000   0.000000   0.000000   0.000000   0.000000   0.000000   0.000000   0.000000   0.000000   0.000000   0.000000   0.000000   0.000000   0.000000   0.000000   0.000000   0.000000   0.000000   0.000000   0.000000   0.000000   0.000000   0.000000   0.000000   0.000000   0.000000   0.000000   0.000000   0.000000   0.000000   0.000000   0.000000   0.000000   0.000000   0.000000   0.000000   0.000000   0.000000   0.000000   0.000000   0.000000
 -2.376765   0.926243   3.975868  -0.132469   0.147044  -0.074205   0.078778  -0.009174   0.053194   0.193105  -0.178291   0.040032  -0.196032   0.142270   0.043063   0.263235  -0.329498   0.291968   0.688562   0.139978   2.117732   0.025516   1.197051  -0.011608   0.377671  -0.470452  -2.780862   0.352154   0.200387  -0.589811   1.203023   0.015093  -1.901002   0.022349  -1.028985   0.015387   0.458420   0.351807   2.834701   0.014178   0.056569   0.004854   0.433668   0.000266   0.000769  -0.506375  -0.206495  -0.007797  -0.113285  -0.000075   0.000003  -0.124734  -0.128653   0.197500   0.849470  -0.000915   0.000146  -0.923760   0.105499   0.075062   0.297256  -0.000514   0.000322
 -2.376872   0.927282   3.975911  -0.301471   0.307728  -0.150675   0.163130  -0.030361   0.100035   0.418172  -0.372458   0.077188  -0.371486   0.279431   0.095262   0.520855  -0.606036   1.307430   1.355791   0.349035   4.813871   0.058735   2.358615  -0.020248   0.788763  -0.605026  -4.834472   0.699270   0.328236  -1.921402   2.384061  -0.064372  -4.408867   0.051908  -2.026533   0.027082   0.965877   0.441721   4.941823   0.046851   0.116579  -0.054284   0.898498   0.000783   0.001500  -0.981374  -0.400051  -0.017100  -0.254355  -0.000237  -0.000032  -0.200205  -0.246360   0.493259   1.746717  -0.002443   0.000516  -1.787301   0.206100   0.148014   0.531820  -0.001007   0.000558
 -2.377020   0.928328   3.976002  -0.463802   0.461353  -0.217950   0.238746  -0.061381   0.132315   0.630494  -0.567109   0.101452  -0.534993   0.407535   0.147480   0.765511  -0.821852   2.766328   1.996940   0.617436   7.887798   0.091168   3.453898  -0.025928   1.190686  -0.618834  -6.053665   1.023905   0.387268  -3.693254   3.536024  -0.239232  -7.312044   0.081159  -2.970591   0.035263   1.461242   0.414041   6.190118   0.068283   0.172853  -0.178162   1.339065   0.001394   0.001984  -1.425239  -0.581124  -0.027670  -0.392159  -0.000432  -0.000062  -0.245456  -0.353507   0.855891   2.603794  -0.004145   0.000895  -2.593077   0.300530   0.218349   0.741371  -0.001470   0.000717
 -2.377196   0.929076   3.976156  -0.610109   0.599172  -0.275801   0.304456  -0.099372   0.149898   0.821926  -0.758476   0.112121  -0.689421   0.526988   0.197448   0.997437  -0.990359   4.474852   2.612539   0.940012  11.213780   0.119031   4.482494  -0.029315   1.579368  -0.574246  -6.653322   1.323603   0.395030  -5.706105   4.659521  -0.507623 -10.477375   0.106670  -3.861352   0.040781   1.941683   0.310991   6.799379   0.073982   0.224944  -0.356320   1.746737   0.001993   0.002225  -1.840469  -0.750653  -0.039247  -0.525730  -0.000633  -0.000076  -0.268180  -0.451896   1.269071   3.410228  -0.005789   0.001197  -3.345832   0.388847   0.285976   0.926911  -0.001855   0.000798
 -2.377393   0.929304   3.976385  -0.739214   0.716486  -0.325477   0.360091  -0.142316   0.153345   0.991988  -0.944942   0.108688  -0.834639   0.638340   0.245062   1.216511  -1.125169   6.304618   3.201842   1.309750  14.706476   0.140851   5.445871  -0.030955   1.953144  -0.499076  -6.834612   1.597204   0.367477  -7.834841   5.746312  -0.861989 -13.797360   0.126972  -4.699947   0.044252   2.406301   0.155618   6.968641   0.065557   0.273248  -0.577563   2.122341   0.002521   0.002274  -2.228912  -0.909350  -0.051556  -0.653959  -0.000823  -0.000072  -0.271422  -0.542686   1.720601   4.167668  -0.007255   0.001399  -4.049075   0.471273   0.350842   1.091589  -0.002149   0.000815
 -2.377621   0.928819   3.976693  -0.852764   0.812407  -0.367551   0.406071  -0.188165   0.141451   1.142987  -1.124810   0.087503  -0.970587   0.741996   0.291194   1.425289  -1.238570   8.213863   3.744384   1.706801  18.207421   0.155948   6.346632  -0.031125   2.311026  -0.406085  -6.681017   1.847072   0.319504 -10.049976   6.736704  -1.273049 -17.056791   0.141212  -5.488778   0.045788   2.854877  -0.043793   6.764176   0.046060   0.318141  -0.831449   2.468717   0.002947   0.002187  -2.592270  -1.057885  -0.064375  -0.776486  -0.000988  -0.000053  -0.257268  -0.626771   2.200665   4.879796  -0.008494   0.001507  -4.706000   0.548058   0.412896   1.238023  -0.002353   0.000788
 -2.377790   0.926895   3.976596  -0.798436   0.878450  -0.466657   0.344459  -0.197932   0.241876   1.297181  -1.284712   0.031348  -1.242472   0.687605   0.287028   1.702711  -1.212833   9.574331   4.433369   2.072276  21.387869   0.171054   7.472436  -0.035937   2.602819  -0.375594  -5.415503   2.171701   0.245741 -11.524357   7.499897  -1.814556 -20.266567   0.153727  -6.426769   0.048560   3.234947  -0.307695   5.481926  -0.240682   0.133060  -0.994348   3.002740   0.003569   0.001097  -2.815572  -1.248687   0.148422  -0.755154  -0.000780  -0.000100  -0.360570  -0.582474   2.691787   5.037183  -0.007316   0.001429  -5.069705   0.625911   0.477659   1.380191  -0.002440   0.000891
 -2.377918   0.923751   3.976298  -0.727590   0.974522  -0.569819   0.321582  -0.215056   0.351168   1.441715  -1.440011  -0.015257  -1.504655   0.630789   0.279725   1.943144  -1.138851  10.640908   5.046714   2.475706  24.214455   0.175128   8.541745  -0.039013   2.904172  -0.237137  -4.261387   2.450304   0.126110 -12.696584   8.172924  -2.385073 -23.123061   0.156884  -7.322061   0.049727   3.609111  -0.691501   4.297461  -0.521185  -0.054906  -1.123725   3.514089   0.003869   0.000368  -3.019527  -1.430161   0.346300  -0.714032  -0.000610  -0.000179  -0.530819  -0.540101   3.138691   5.084952  -0.005990   0.001223  -5.412560   0.698614   0.538730   1.515848  -0.002421   0.000994
 -2.378013   0.919517   3.975914  -0.655736   1.082072  -0.670039   0.325155  -0.228239   0.459514   1.584841  -1.583284  -0.053674  -1.745985   0.577593   0.272844   2.149715  -1.041039  11.497575   5.590785   2.893815  26.750062   0.172000   9.548998  -0.040512   3.199115  -0.051312  -3.349455   2.690762  -0.013059 -13.650854   8.767937  -2.956521 -25.683051   0.153748  -8.165188   0.049391   3.968699  -1.107777   3.359754  -0.769031  -0.229851  -1.228912   3.993571   0.003925  -0.000080  -3.208970  -1.599968   0.530482  -0.672900  -0.000480  -0.000230  -0.746186  -0.502210   3.537395   5.093335  -0.004813   0.000994  -5.734174   0.765935   0.596061   1.638699  -0.002308   0.001054
 -2.378092   0.919643   3.975938  -0.722672   1.131951  -0.566001   0.394255  -0.210764   0.395660   1.779074  -1.695158  -0.152636  -1.962672   0.528733   0.261653   2.325941  -0.912910  12.540830   6.068899   3.327192  29.167014   0.167573  10.484479  -0.040489   3.482227   0.096979  -2.676006   2.899908  -0.162787 -14.730399   9.291428  -3.521150 -28.077975   0.148921  -8.940726   0.047740   4.306322  -1.429530   2.691675  -0.998563  -0.423676  -1.372710   4.553236   0.003271  -0.000860  -3.084827  -1.789710   0.774479  -0.525254  -0.000632  -0.000635  -0.982816  -0.380373   3.457488   5.605129  -0.003879   0.001681  -5.449375   0.891026   0.516617   1.827702  -0.001755   0.001355
 -2.378287   0.919874   3.976225  -0.739844   1.172977  -0.472224   0.396113  -0.188609   0.365119   1.930651  -1.791062  -0.252365  -2.160339   0.483047   0.243319   2.497364  -0.806237  13.358440   6.503920   3.747702  31.404053   0.159418  11.368316  -0.039254   3.753381   0.301015  -1.914878   3.106443  -0.280100 -15.597444   9.766925  -4.058261 -30.305028   0.141041  -9.673368   0.045088   4.627450  -1.796709   1.945705  -1.178607  -0.563652  -1.485901   4.994490   0.002643  -0.001123  -3.250768  -1.929035   0.917194  -0.442679  -0.000595  -0.000686  -1.131281  -0.318102   3.380582   5.946005  -0.003114   0.001701  -5.522584   0.955994   0.536853   1.981369  -0.001446   0.001325
